{
  "accessors": [
    {
      "bufferView": 2,
      "componentType": 5126,
      "count": 261,
      "max": [
        11.799903869628906,
        7.862886428833008,
        0.07389764487743378
      ],
      "min": [
        -11.799903869628906,
        -7.862886428833008,
        -0.07389763742685318
      ],
      "type": "VEC3"
    },
    {
      "bufferView": 2,
      "byteOffset": 3132,
      "componentType": 5126,
      "count": 261,
      "max": [
        0.9238936901092529,
        0.9249758720397949,
        1.0
      ],
      "min": [
        -0.9239233732223511,
        -0.92498379945755,
        -1.0
      ],
      "type": "VEC3"
    },
    {
      "bufferView": 3,
      "componentType": 5126,
      "count": 261,
      "max": [
        0.9729892611503601,
        1.0,
        0.9999982714653015,
        1.0
      ],
      "min": [
        -1.0,
        -1.0,
        -0.9999997615814209,
        1.0
      ],
      "type": "VEC4"
    },
    {
      "bufferView": 1,
      "componentType": 5126,
      "count": 261,
      "max": [
        0.9769634008407593,
        0.9916937947273254
      ],
      "min": [
        0.00595787912607193,
        0.006799468770623207
      ],
      "type": "VEC2"
    },
    {
      "bufferView": 1,
      "byteOffset": 2088,
      "componentType": 5126,
      "count": 261,
      "max": [
        0.9769634008407593,
        0.9916937947273254
      ],
      "min": [
        0.00595787912607193,
        0.006799468770623207
      ],
      "type": "VEC2"
    },
    {
      "bufferView": 1,
      "byteOffset": 4176,
      "componentType": 5126,
      "count": 261,
      "max": [
        0.9769634008407593,
        0.9916937947273254
      ],
      "min": [
        0.00595787912607193,
        0.006799468770623207
      ],
      "type": "VEC2"
    },
    {
      "bufferView": 0,
      "componentType": 5125,
      "count": 588,
      "type": "SCALAR"
    }
  ],
  "asset": {
    "extras": {
      "author": "plaggy (https://sketchfab.com/plaggy)",
      "license": "CC-BY-4.0 (http://creativecommons.org/licenses/by/4.0/)",
      "source": "https://sketchfab.com/3d-models/cc0-doormate-a30cdc77fc894caba2aa578698b248b8",
      "title": "CC0 - Doormate"
    },
    "generator": "Sketchfab-13.90.0",
    "version": "2.0"
  },
  "bufferViews": [
    {
      "buffer": 0,
      "byteLength": 2352,
      "name": "floatBufferViews",
      "target": 34963
    },
    {
      "buffer": 0,
      "byteLength": 6264,
      "byteOffset": 2352,
      "byteStride": 8,
      "name": "floatBufferViews",
      "target": 34962
    },
    {
      "buffer": 0,
      "byteLength": 6264,
      "byteOffset": 8616,
      "byteStride": 12,
      "name": "floatBufferViews",
      "target": 34962
    },
    {
      "buffer": 0,
      "byteLength": 4176,
      "byteOffset": 14880,
      "byteStride": 16,
      "name": "floatBufferViews",
      "target": 34962
    }
  ],
  "buffers": [
    {
      "byteLength": 19056,
      "uri": ".bin"
    }
  ],
  "images": [
    {
      "uri": "textures/Doormate_baseColor.png"
    },
    {
      "uri": "textures/Doormate_metallicRoughness.png"
    },
    {
      "uri": "textures/Doormate_normal.png"
    }
  ],
  "materials": [
    {
      "name": "Doormate",
      "normalTexture": {
        "index": 2
      },
      "pbrMetallicRoughness": {
        "baseColorTexture": {
          "index": 0
        },
        "metallicRoughnessTexture": {
          "index": 1
        }
      }
    }
  ],
  "meshes": [
    {
      "name": "Doormate_Doormate_0",
      "primitives": [
        {
          "attributes": {
            "NORMAL": 1,
            "POSITION": 0,
            "TANGENT": 2,
            "TEXCOORD_0": 3,
            "TEXCOORD_1": 4,
            "TEXCOORD_2": 5
          },
          "indices": 6,
          "material": 0,
          "mode": 4
        }
      ]
    }
  ],
  "nodes": [
    {
      "children": [
        1
      ],
      "matrix": [
        1.0,
        0.0,
        0.0,
        0.0,
        0.0,
        2.220446049250313e-16,
        -1.0,
        0.0,
        0.0,
        1.0,
        2.220446049250313e-16,
        0.0,
        0.0,
        0.0,
        0.0,
        1.0
      ],
      "name": "Sketchfab_model"
    },
    {
      "children": [
        2
      ],
      "matrix": [
        0.02539999969303608,
        0.0,
        0.0,
        0.0,
        0.0,
        0.0,
        0.02539999969303608,
        0.0,
        0.0,
        -0.02539999969303608,
        0.0,
        0.0,
        0.0,
        0.0,
        0.0,
        1.0
      ],
      "name": "0437c41e13a7487fb375c5f57d33a27b.fbx"
    },
    {
      "children": [
        3
      ],
      "name": "RootNode"
    },
    {
      "children": [
        4
      ],
      "matrix": [
        1.0,
        0.0,
        0.0,
        0.0,
        0.0,
        2.220446049250313e-16,
        -1.0,
        0.0,
        0.0,
        1.0,
        2.220446049250313e-16,
        0.0,
        0.0,
        0.0,
        0.0,
        1.0
      ],
      "name": "Doormate"
    },
    {
      "mesh": 0,
      "name": "Doormate_Doormate_0"
    }
  ],
  "samplers": [
    {
      "magFilter": 9729,
      "minFilter": 9987,
      "wrapS": 10497,
      "wrapT": 10497
    }
  ],
  "scene": 0,
  "scenes": [
    {
      "name": "Sketchfab_Scene",
      "nodes": [
        0
      ]
    }
  ],
  "textures": [
    {
      "sampler": 0,
      "source": 0
    },
    {
      "sampler": 0,
      "source": 1
    },
    {
      "sampler": 0,
      "source": 2
    }
  ]
}
