<?xml version="1.0" encoding="utf-8"?>
<COLLADA xmlns="http://www.collada.org/2005/11/COLLADASchema" version="1.4.1">
  <asset><contributor><author></author><authoring_tool>FBX COLLADA exporter</authoring_tool><comments></comments></contributor><created>2022-09-02T17:46:38Z</created><keywords></keywords><modified>2022-09-02T17:46:38Z</modified><revision></revision><subject></subject><title></title><unit meter="0.025400" name="centimeter"></unit><up_axis>Y_UP</up_axis></asset>
  <library_images>
    <image id="Map #75-image" name="Map #75"><init_from>file://F:\M n B\_MESH\D mesh\Doormate\DoormateAlbedo.png</init_from></image>
    <image id="Map #79-image" name="Map #79"><init_from>file://F:\M n B\_MESH\D mesh\Doormate\DoormateMetal.png</init_from></image>
    <image id="Map #76-image" name="Map #76"><init_from>file://F:\M n B\_MESH\D mesh\Doormate\DoormateRough.png</init_from></image>
  </library_images>
  <library_materials>
    <material id="Doormate" name="Doormate">
      <instance_effect url="#Doormate-fx"/>
    </material>
  </library_materials>
  <library_effects>
    <effect id="Doormate-fx" name="Doormate">
      <profile_COMMON>
        <technique sid="standard">
          <phong>
            <emission>
              <color sid="emission">0.000000  0.000000 0.000000 1.000000</color>
            </emission>
            <ambient>
              <color sid="ambient">0.588000  0.588000 0.588000 1.000000</color>
            </ambient>
            <diffuse>
              <texture texture="Map #75-image" texcoord="CHANNEL0">
                <extra>
                  <technique profile="MAYA">
                    <wrapU sid="wrapU0">TRUE</wrapU>
                    <wrapV sid="wrapV0">TRUE</wrapV>
                    <blend_mode>ADD</blend_mode>
                  </technique>
                </extra>
              </texture>
            </diffuse>
            <specular>
              <texture texture="Map #76-image" texcoord="CHANNEL0">
                <extra>
                  <technique profile="MAYA">
                    <wrapU sid="wrapU0">TRUE</wrapU>
                    <wrapV sid="wrapV0">TRUE</wrapV>
                    <blend_mode>ADD</blend_mode>
                  </technique>
                </extra>
              </texture>
            </specular>
            <shininess>
              <float sid="shininess">2.000000</float>
            </shininess>
            <reflective>
              <texture texture="Map #79-image" texcoord="CHANNEL0">
                <extra>
                  <technique profile="MAYA">
                    <wrapU sid="wrapU0">TRUE</wrapU>
                    <wrapV sid="wrapV0">TRUE</wrapV>
                    <blend_mode>ADD</blend_mode>
                  </technique>
                </extra>
              </texture>
            </reflective>
            <reflectivity>
              <float sid="reflectivity">1.000000</float>
            </reflectivity>
            <transparent opaque="RGB_ZERO">
              <color sid="transparent">1.000000  1.000000 1.000000 1.000000</color>
            </transparent>
            <transparency>
              <float sid="transparency">0.000000</float>
            </transparency>
          </phong>
        </technique>
      </profile_COMMON>
    </effect>
  </library_effects>
  <library_geometries>
    <geometry id="Doormate-lib" name="DoormateMesh">
      <mesh>
        <source id="Doormate-POSITION">
          <float_array id="Doormate-POSITION-array" count="300">
-11.782735 -7.845734 -0.059055
-11.765558 -7.862882 -0.059055
-11.782739 -7.845737 -0.073898
-11.799876 -7.828587 -0.059055
-11.782731 -7.845731 -0.044213
11.782750 -7.845736 -0.059055
11.765604 -7.862883 -0.059055
11.782745 -7.845733 -0.044213
11.799899 -7.828587 -0.059055
11.782754 -7.845738 -0.073898
11.782751 7.845735 -0.059055
11.799899 7.828587 -0.059055
11.782746 7.845731 -0.044213
11.765604 7.862882 -0.059055
11.782755 7.845739 -0.073898
-11.782734 7.845736 -0.059055
-11.765558 7.862884 -0.059055
-11.782730 7.845732 -0.044213
-11.799876 7.828588 -0.059055
-11.782738 7.845740 -0.073898
-11.020541 -7.083540 -0.029370
-11.002625 -7.101456 -0.029370
-11.032310 -7.095308 -0.044213
-11.038458 -7.065623 -0.029370
-11.008772 -7.071771 -0.014528
11.020555 -7.083539 -0.029370
11.002640 -7.101456 -0.029370
11.008787 -7.071771 -0.014528
11.038473 -7.065623 -0.029370
11.032325 -7.095308 -0.044213
11.020555 7.083540 -0.029370
11.038473 7.065624 -0.029370
11.008787 7.071772 -0.014528
11.002640 7.101457 -0.029370
11.032325 7.095309 -0.044213
-11.020540 7.083540 -0.029370
-11.002625 7.101457 -0.029370
-11.008772 7.071772 -0.014528
-11.038458 7.065624 -0.029370
-11.032310 7.095309 -0.044213
-11.003825 -7.066823 0.054108
-10.993930 -7.071771 0.059055
-11.008772 -7.071771 0.044213
-11.008772 -7.056929 0.059055
11.003840 -7.066823 0.054108
10.993945 -7.071771 0.059055
11.008787 -7.056929 0.059055
11.008787 -7.071771 0.044213
11.003840 7.066824 0.054108
11.008787 7.056930 0.059055
10.993945 7.071772 0.059055
11.008787 7.071772 0.044213
-11.003825 7.066824 0.054108
-10.993930 7.071772 0.059055
-11.008772 7.056930 0.059055
-11.008772 7.071772 0.044213
-10.993930 -7.056929 0.073898
10.993945 -7.056929 0.073898
10.993945 7.056930 0.073898
-10.993930 7.056930 0.073898
11.765612 -7.862886 -0.073898
-11.765672 -7.862885 -0.073898
11.799904 7.828589 -0.073898
11.799904 -7.828587 -0.073898
-11.765672 7.862886 -0.073898
11.765612 7.862885 -0.073898
-11.799904 -7.828587 -0.073898
-11.799904 7.828590 -0.073898
-11.765446 -7.862878 -0.044213
11.765596 -7.862879 -0.044213
11.011334 -7.116299 -0.044213
-11.011319 -7.116299 -0.044213
11.799893 -7.828587 -0.044213
11.799893 7.828584 -0.044213
11.053315 7.074319 -0.044213
11.053315 -7.074318 -0.044213
11.765596 7.862879 -0.044213
-11.765446 7.862881 -0.044213
-11.011319 7.116300 -0.044213
11.011334 7.116300 -0.044213
-11.799848 7.828585 -0.044213
-11.799848 -7.828587 -0.044213
-11.053300 -7.074318 -0.044213
-11.053300 7.074319 -0.044213
-10.993930 -7.086614 -0.014528
10.993945 -7.086614 -0.014528
10.993945 -7.086614 0.044213
-10.993930 -7.086614 0.044213
11.023630 -7.056929 -0.014528
11.023630 7.056930 -0.014528
11.023630 7.056930 0.044213
11.023630 -7.056929 0.044213
10.993945 7.086615 -0.014528
-10.993930 7.086615 -0.014528
-10.993930 7.086615 0.044213
10.993945 7.086615 0.044213
-11.023615 7.056930 -0.014528
-11.023615 -7.056929 -0.014528
-11.023615 -7.056929 0.044213
-11.023615 7.056930 0.044213
</float_array>
          <technique_common>
            <accessor source="#Doormate-POSITION-array" count="100" stride="3">
              <param name="X" type="float"/>
              <param name="Y" type="float"/>
              <param name="Z" type="float"/>
            </accessor>
          </technique_common>
        </source>
        <source id="Doormate-Normal0">
          <float_array id="Doormate-Normal0-array" count="1764">
0.000000 0.000000 1.000000
0.000000 0.000000 1.000000
0.000000 0.000000 1.000000
0.000000 0.000000 1.000000
0.000000 0.000000 1.000000
0.000000 0.000000 1.000000
0.000000 0.000000 1.000000
0.000000 0.000000 1.000000
0.000000 0.000000 1.000000
0.000000 0.000000 1.000000
0.000000 0.000000 1.000000
0.000000 0.000000 1.000000
0.000000 0.000000 1.000000
0.000000 0.000000 1.000000
0.000000 0.000000 1.000000
0.000000 0.000000 1.000000
0.000000 0.000000 1.000000
0.000000 0.000000 1.000000
0.000000 0.000000 1.000000
0.000000 0.000000 1.000000
0.000000 0.000000 1.000000
0.000000 0.000000 1.000000
0.000000 0.000000 1.000000
0.000000 0.000000 1.000000
0.000000 0.000000 1.000000
0.000000 0.000000 1.000000
0.000000 0.000000 1.000000
0.000000 0.000000 1.000000
0.000000 0.000000 1.000000
0.000000 0.000000 1.000000
-0.341591 -0.875578 0.341584
0.327619 -0.827176 0.456558
0.341591 -0.875578 0.341584
0.327619 -0.827176 0.456558
-0.341591 -0.875578 0.341584
-0.327613 -0.827177 0.456562
0.875576 -0.341589 0.341589
0.827172 0.327620 0.456564
0.875576 0.341589 0.341589
0.827172 0.327620 0.456564
0.875576 -0.341589 0.341589
0.827172 -0.327620 0.456564
0.341591 0.875578 0.341584
-0.327619 0.827176 0.456558
-0.341591 0.875578 0.341584
-0.327619 0.827176 0.456558
0.341591 0.875578 0.341584
0.327619 0.827176 0.456558
-0.875576 0.341589 0.341589
-0.827173 -0.327615 0.456568
-0.875576 -0.341589 0.341589
-0.827173 -0.327615 0.456568
-0.875576 0.341589 0.341589
-0.827172 0.327620 0.456564
-0.302910 -0.673886 0.673886
-0.673889 -0.302903 0.673887
-0.577357 -0.577347 0.577347
-0.673889 -0.302903 0.673887
-0.302910 -0.673886 0.673886
-0.460570 -0.460560 0.758788
0.673889 -0.302903 0.673887
0.302910 -0.673886 0.673886
0.577357 -0.577347 0.577347
0.302910 -0.673886 0.673886
0.673889 -0.302903 0.673887
0.460570 -0.460560 0.758788
0.302910 0.673886 0.673886
0.673889 0.302903 0.673887
0.577357 0.577347 0.577347
0.673889 0.302903 0.673887
0.302910 0.673886 0.673886
0.460570 0.460560 0.758788
-0.673889 0.302903 0.673887
-0.302910 0.673886 0.673886
-0.577357 0.577347 0.577347
-0.302910 0.673886 0.673886
-0.673889 0.302903 0.673887
-0.460570 0.460560 0.758788
0.382702 -0.923872 0.000367
0.707146 -0.707067 0.000352
0.707115 -0.707098 0.000366
0.707146 -0.707067 0.000352
0.382702 -0.923872 0.000367
0.382813 -0.923826 0.000373
-0.382289 -0.924041 0.001718
-0.707327 -0.706884 0.001886
-0.384604 -0.923080 0.001745
-0.707327 -0.706884 0.001886
-0.382289 -0.924041 0.001718
-0.706872 -0.707339 0.001882
0.707114 0.707099 0.000415
0.923883 0.382676 0.000397
0.923881 0.382680 0.000364
0.707114 0.707099 0.000415
0.923881 0.382680 0.000364
0.707129 0.707085 0.000392
0.707115 -0.707098 0.000366
0.923894 -0.382649 0.000321
0.923878 -0.382687 0.000351
0.923894 -0.382649 0.000321
0.707115 -0.707098 0.000366
0.707146 -0.707067 0.000352
-0.382298 0.924037 0.001695
-0.707324 0.706886 0.001926
-0.706885 0.707326 0.001924
-0.707324 0.706886 0.001926
-0.382298 0.924037 0.001695
-0.384609 0.923078 0.001710
0.382688 0.923877 0.000347
0.707129 0.707085 0.000392
0.382793 0.923834 0.000338
0.707129 0.707085 0.000392
0.382688 0.923877 0.000347
0.707114 0.707099 0.000415
-0.923913 -0.382600 0.001475
-0.707327 -0.706884 0.001886
-0.706872 -0.707339 0.001882
-0.707327 -0.706884 0.001886
-0.923913 -0.382600 0.001475
-0.923918 -0.382587 0.001451
-0.923916 0.382594 0.001518
-0.707324 0.706886 0.001926
-0.923903 0.382623 0.001494
-0.707324 0.706886 0.001926
-0.923916 0.382594 0.001518
-0.706885 0.707326 0.001924
-0.706417 -0.707794 0.001877
-0.382289 -0.924041 0.001718
-0.380003 -0.924984 0.001691
-0.382289 -0.924041 0.001718
-0.706417 -0.707794 0.001877
-0.706872 -0.707339 0.001882
0.707085 -0.707129 0.000381
0.382702 -0.923872 0.000367
0.707115 -0.707098 0.000366
0.382702 -0.923872 0.000367
0.707085 -0.707129 0.000381
0.382586 -0.923920 0.000361
0.470629 -0.470632 0.746333
0.230851 -0.617057 0.752295
0.263023 -0.600802 0.754888
0.230851 -0.617057 0.752295
0.470629 -0.470632 0.746333
0.470630 -0.470632 0.746333
-0.230848 -0.617065 0.752290
-0.470637 -0.470640 0.746324
-0.263022 -0.600810 0.754882
-0.470637 -0.470640 0.746324
-0.230848 -0.617065 0.752290
-0.470637 -0.470640 0.746324
0.707085 -0.707129 0.000381
0.707115 -0.707098 0.000366
0.923858 -0.382736 0.000381
0.923858 -0.382736 0.000381
0.707115 -0.707098 0.000366
0.923878 -0.382687 0.000351
0.707099 0.707114 0.000437
0.923883 0.382676 0.000397
0.707114 0.707099 0.000415
0.923883 0.382676 0.000397
0.707099 0.707114 0.000437
0.923880 0.382683 0.000430
0.617065 0.230853 0.752289
0.470629 0.470632 0.746333
0.470630 0.470632 0.746333
0.470629 0.470632 0.746333
0.617065 0.230853 0.752289
0.600807 0.263029 0.754882
0.470629 -0.470632 0.746333
0.617065 -0.230853 0.752289
0.470630 -0.470632 0.746333
0.617065 -0.230853 0.752289
0.470629 -0.470632 0.746333
0.600807 -0.263029 0.754882
0.707099 0.707114 0.000437
0.382688 0.923877 0.000347
0.382584 0.923921 0.000356
0.382688 0.923877 0.000347
0.707099 0.707114 0.000437
0.707114 0.707099 0.000415
-0.706446 0.707764 0.001922
-0.382298 0.924037 0.001695
-0.706885 0.707326 0.001924
-0.382298 0.924037 0.001695
-0.706446 0.707764 0.001922
-0.380022 0.924976 0.001680
-0.230851 0.617057 0.752295
-0.470629 0.470632 0.746333
-0.470629 0.470632 0.746333
-0.470629 0.470632 0.746333
-0.230851 0.617057 0.752295
-0.263023 0.600802 0.754888
0.470629 0.470632 0.746333
0.230851 0.617057 0.752295
0.470630 0.470632 0.746333
0.230851 0.617057 0.752295
0.470629 0.470632 0.746333
0.263023 0.600802 0.754888
-0.706446 0.707764 0.001922
-0.923916 0.382594 0.001518
-0.923923 0.382575 0.001541
-0.923916 0.382594 0.001518
-0.706446 0.707764 0.001922
-0.706885 0.707326 0.001924
-0.706417 -0.707794 0.001877
-0.923913 -0.382600 0.001475
-0.706872 -0.707339 0.001882
-0.923913 -0.382600 0.001475
-0.706417 -0.707794 0.001877
-0.923903 -0.382624 0.001498
-0.470637 -0.470640 0.746324
-0.617073 -0.230850 0.752283
-0.600815 -0.263028 0.754876
-0.617073 -0.230850 0.752283
-0.470637 -0.470640 0.746324
-0.470637 -0.470640 0.746324
-0.617065 0.230853 0.752289
-0.470629 0.470632 0.746333
-0.600807 0.263029 0.754882
-0.470629 0.470632 0.746333
-0.617065 0.230853 0.752289
-0.470629 0.470632 0.746333
-0.470626 -0.470630 0.746337
-0.263021 -0.600804 0.754888
-0.327613 -0.827177 0.456562
-0.327613 -0.827177 0.456562
-0.645284 -0.645286 0.408919
-0.470626 -0.470630 0.746337
0.263029 -0.600806 0.754883
0.470635 -0.470638 0.746326
0.327619 -0.827176 0.456558
0.327619 -0.827176 0.456558
0.470635 -0.470638 0.746326
0.645287 -0.645288 0.408911
0.302910 -0.673886 0.673886
0.673889 -0.673887 0.302903
0.577357 -0.577347 0.577347
0.673889 -0.673887 0.302903
0.302910 -0.673886 0.673886
0.341591 -0.875578 0.341584
-0.302910 -0.673886 0.673886
-0.673889 -0.673887 0.302903
-0.341591 -0.875578 0.341584
-0.673889 -0.673887 0.302903
-0.302910 -0.673886 0.673886
-0.577357 -0.577347 0.577347
0.470635 -0.470638 0.746326
0.600798 -0.263027 0.754890
0.827172 -0.327620 0.456564
0.470635 -0.470638 0.746326
0.827172 -0.327620 0.456564
0.645287 -0.645288 0.408911
0.600798 0.263027 0.754890
0.470635 0.470638 0.746326
0.827172 0.327620 0.456564
0.827172 0.327620 0.456564
0.470635 0.470638 0.746326
0.645287 0.645288 0.408911
0.577357 0.577347 0.577347
0.673889 0.302903 0.673887
0.875576 0.341589 0.341589
0.875576 0.341589 0.341589
0.673889 0.673887 0.302903
0.577357 0.577347 0.577347
0.577357 -0.577347 0.577347
0.875576 -0.341589 0.341589
0.673889 -0.302903 0.673887
0.875576 -0.341589 0.341589
0.577357 -0.577347 0.577347
0.673889 -0.673887 0.302903
0.470635 0.470638 0.746326
0.327619 0.827176 0.456558
0.645287 0.645288 0.408911
0.327619 0.827176 0.456558
0.470635 0.470638 0.746326
0.263029 0.600806 0.754883
-0.645287 0.645288 0.408911
-0.327619 0.827176 0.456558
-0.470635 0.470638 0.746326
-0.327619 0.827176 0.456558
-0.263029 0.600806 0.754883
-0.470635 0.470638 0.746326
-0.302910 0.673886 0.673886
-0.673889 0.673887 0.302903
-0.577357 0.577347 0.577347
-0.673889 0.673887 0.302903
-0.302910 0.673886 0.673886
-0.341591 0.875578 0.341584
0.302910 0.673886 0.673886
0.673889 0.673887 0.302903
0.341591 0.875578 0.341584
0.673889 0.673887 0.302903
0.302910 0.673886 0.673886
0.577357 0.577347 0.577347
-0.827172 0.327620 0.456564
-0.645287 0.645288 0.408911
-0.470635 0.470638 0.746326
-0.827172 0.327620 0.456564
-0.470635 0.470638 0.746326
-0.600798 0.263027 0.754890
-0.470626 -0.470630 0.746337
-0.827173 -0.327615 0.456568
-0.600796 -0.263019 0.754894
-0.827173 -0.327615 0.456568
-0.470626 -0.470630 0.746337
-0.645284 -0.645286 0.408919
-0.577357 -0.577347 0.577347
-0.673889 -0.302903 0.673887
-0.875576 -0.341589 0.341589
-0.875576 -0.341589 0.341589
-0.673889 -0.673887 0.302903
-0.577357 -0.577347 0.577347
-0.577357 0.577347 0.577347
-0.875576 0.341589 0.341589
-0.673889 0.302903 0.673887
-0.875576 0.341589 0.341589
-0.577357 0.577347 0.577347
-0.673889 0.673887 0.302903
0.460570 -0.460560 0.758788
-0.460570 -0.460560 0.758788
-0.302910 -0.673886 0.673886
0.460570 -0.460560 0.758788
-0.302910 -0.673886 0.673886
0.302910 -0.673886 0.673886
0.460570 0.460560 0.758788
0.460570 -0.460560 0.758788
0.673889 -0.302903 0.673887
0.460570 0.460560 0.758788
0.673889 -0.302903 0.673887
0.673889 0.302903 0.673887
-0.460570 0.460560 0.758788
0.460570 0.460560 0.758788
0.302910 0.673886 0.673886
-0.460570 0.460560 0.758788
0.302910 0.673886 0.673886
-0.302910 0.673886 0.673886
-0.460570 -0.460560 0.758788
-0.460570 0.460560 0.758788
-0.673889 0.302903 0.673887
-0.460570 -0.460560 0.758788
-0.673889 0.302903 0.673887
-0.673889 -0.302903 0.673887
-0.382289 -0.924041 0.001718
0.382813 -0.923826 0.000373
0.382702 -0.923872 0.000367
0.382813 -0.923826 0.000373
-0.382289 -0.924041 0.001718
-0.384604 -0.923080 0.001745
0.923883 0.382676 0.000397
0.923878 -0.382687 0.000351
0.923894 -0.382649 0.000321
0.923883 0.382676 0.000397
0.923894 -0.382649 0.000321
0.923881 0.382680 0.000364
-0.382298 0.924037 0.001695
0.382688 0.923877 0.000347
0.382793 0.923834 0.000338
-0.382298 0.924037 0.001695
0.382793 0.923834 0.000338
-0.384609 0.923078 0.001710
-0.923916 0.382594 0.001518
-0.923918 -0.382587 0.001451
-0.923913 -0.382600 0.001475
-0.923918 -0.382587 0.001451
-0.923916 0.382594 0.001518
-0.923903 0.382623 0.001494
-0.380003 -0.924984 0.001691
0.382702 -0.923872 0.000367
0.382586 -0.923920 0.000361
0.382702 -0.923872 0.000367
-0.380003 -0.924984 0.001691
-0.382289 -0.924041 0.001718
0.000000 0.000000 1.000000
0.000000 0.000000 1.000000
0.000000 0.000000 1.000000
0.000000 0.000000 1.000000
0.000000 0.000000 1.000000
0.000000 0.000000 1.000000
-0.263022 -0.600810 0.754882
0.263023 -0.600802 0.754888
0.230851 -0.617057 0.752295
-0.263022 -0.600810 0.754882
0.230851 -0.617057 0.752295
-0.230848 -0.617065 0.752290
0.000000 0.000000 1.000000
0.000000 0.000000 1.000000
0.000000 0.000000 1.000000
0.000000 0.000000 1.000000
0.000000 0.000000 1.000000
0.000000 0.000000 1.000000
0.923880 0.382683 0.000430
0.923858 -0.382736 0.000381
0.923878 -0.382687 0.000351
0.923880 0.382683 0.000430
0.923878 -0.382687 0.000351
0.923883 0.382676 0.000397
0.000000 0.000000 1.000000
0.000000 0.000000 1.000000
0.000000 0.000000 1.000000
0.000000 0.000000 1.000000
0.000000 0.000000 1.000000
0.000000 0.000000 1.000000
0.600807 -0.263029 0.754882
0.600807 0.263029 0.754882
0.617065 0.230853 0.752289
0.600807 -0.263029 0.754882
0.617065 0.230853 0.752289
0.617065 -0.230853 0.752289
0.000000 0.000000 1.000000
0.000000 0.000000 1.000000
0.000000 0.000000 1.000000
0.000000 0.000000 1.000000
0.000000 0.000000 1.000000
0.000000 0.000000 1.000000
-0.380022 0.924976 0.001680
0.382584 0.923921 0.000356
0.382688 0.923877 0.000347
-0.380022 0.924976 0.001680
0.382688 0.923877 0.000347
-0.382298 0.924037 0.001695
0.000000 0.000000 1.000000
0.000000 0.000000 1.000000
0.000000 0.000000 1.000000
0.000000 0.000000 1.000000
0.000000 0.000000 1.000000
0.000000 0.000000 1.000000
0.263023 0.600802 0.754888
-0.263023 0.600802 0.754888
-0.230851 0.617057 0.752295
0.263023 0.600802 0.754888
-0.230851 0.617057 0.752295
0.230851 0.617057 0.752295
0.000000 0.000000 1.000000
0.000000 0.000000 1.000000
0.000000 0.000000 1.000000
0.000000 0.000000 1.000000
0.000000 0.000000 1.000000
0.000000 0.000000 1.000000
-0.923923 0.382575 0.001541
-0.923913 -0.382600 0.001475
-0.923903 -0.382624 0.001498
-0.923913 -0.382600 0.001475
-0.923923 0.382575 0.001541
-0.923916 0.382594 0.001518
0.000000 0.000000 1.000000
0.000000 0.000000 1.000000
0.000000 0.000000 1.000000
0.000000 0.000000 1.000000
0.000000 0.000000 1.000000
0.000000 0.000000 1.000000
-0.600807 0.263029 0.754882
-0.600815 -0.263028 0.754876
-0.617073 -0.230850 0.752283
-0.600807 0.263029 0.754882
-0.617073 -0.230850 0.752283
-0.617065 0.230853 0.752289
0.000000 0.000000 1.000000
0.000000 0.000000 1.000000
0.000000 0.000000 1.000000
0.000000 0.000000 1.000000
0.000000 0.000000 1.000000
0.000000 0.000000 1.000000
0.327619 -0.827176 0.456558
-0.327613 -0.827177 0.456562
-0.263021 -0.600804 0.754888
0.327619 -0.827176 0.456558
-0.263021 -0.600804 0.754888
0.263029 -0.600806 0.754883
0.645287 -0.645288 0.408911
0.673889 -0.673887 0.302903
0.341591 -0.875578 0.341584
0.341591 -0.875578 0.341584
0.327619 -0.827176 0.456558
0.645287 -0.645288 0.408911
0.302910 -0.673886 0.673886
-0.302910 -0.673886 0.673886
-0.341591 -0.875578 0.341584
0.302910 -0.673886 0.673886
-0.341591 -0.875578 0.341584
0.341591 -0.875578 0.341584
-0.673889 -0.673887 0.302903
-0.327613 -0.827177 0.456562
-0.341591 -0.875578 0.341584
-0.327613 -0.827177 0.456562
-0.673889 -0.673887 0.302903
-0.645284 -0.645286 0.408919
0.600798 -0.263027 0.754890
0.600798 0.263027 0.754890
0.827172 0.327620 0.456564
0.600798 -0.263027 0.754890
0.827172 0.327620 0.456564
0.827172 -0.327620 0.456564
0.645287 0.645288 0.408911
0.673889 0.673887 0.302903
0.875576 0.341589 0.341589
0.875576 0.341589 0.341589
0.827172 0.327620 0.456564
0.645287 0.645288 0.408911
0.673889 0.302903 0.673887
0.875576 -0.341589 0.341589
0.875576 0.341589 0.341589
0.875576 -0.341589 0.341589
0.673889 0.302903 0.673887
0.673889 -0.302903 0.673887
0.673889 -0.673887 0.302903
0.827172 -0.327620 0.456564
0.875576 -0.341589 0.341589
0.827172 -0.327620 0.456564
0.673889 -0.673887 0.302903
0.645287 -0.645288 0.408911
-0.327619 0.827176 0.456558
0.327619 0.827176 0.456558
0.263029 0.600806 0.754883
-0.327619 0.827176 0.456558
0.263029 0.600806 0.754883
-0.263029 0.600806 0.754883
-0.645287 0.645288 0.408911
-0.673889 0.673887 0.302903
-0.341591 0.875578 0.341584
-0.341591 0.875578 0.341584
-0.327619 0.827176 0.456558
-0.645287 0.645288 0.408911
-0.302910 0.673886 0.673886
0.302910 0.673886 0.673886
0.341591 0.875578 0.341584
-0.302910 0.673886 0.673886
0.341591 0.875578 0.341584
-0.341591 0.875578 0.341584
0.673889 0.673887 0.302903
0.327619 0.827176 0.456558
0.341591 0.875578 0.341584
0.327619 0.827176 0.456558
0.673889 0.673887 0.302903
0.645287 0.645288 0.408911
-0.600798 0.263027 0.754890
-0.827173 -0.327615 0.456568
-0.827172 0.327620 0.456564
-0.600798 0.263027 0.754890
-0.600796 -0.263019 0.754894
-0.827173 -0.327615 0.456568
-0.645284 -0.645286 0.408919
-0.673889 -0.673887 0.302903
-0.875576 -0.341589 0.341589
-0.875576 -0.341589 0.341589
-0.827173 -0.327615 0.456568
-0.645284 -0.645286 0.408919
-0.673889 -0.302903 0.673887
-0.673889 0.302903 0.673887
-0.875576 0.341589 0.341589
-0.875576 0.341589 0.341589
-0.875576 -0.341589 0.341589
-0.673889 -0.302903 0.673887
-0.673889 0.673887 0.302903
-0.827172 0.327620 0.456564
-0.875576 0.341589 0.341589
-0.827172 0.327620 0.456564
-0.673889 0.673887 0.302903
-0.645287 0.645288 0.408911
-0.000000 -0.000000 -1.000000
-0.000000 -0.000000 -1.000000
0.000000 0.000000 -1.000000
-0.000000 -0.000000 -1.000000
0.000000 0.000000 -1.000000
0.000000 0.000000 -1.000000
-0.000000 -0.000000 -1.000000
-0.000000 -0.000000 -1.000000
-0.000000 -0.000000 -1.000000
-0.000000 -0.000000 -1.000000
-0.000000 -0.000000 -1.000000
-0.000000 -0.000000 -1.000000
0.000000 -0.000000 -1.000000
-0.000000 -0.000000 -1.000000
0.000000 -0.000000 -1.000000
-0.000000 -0.000000 -1.000000
-0.000000 -0.000000 -1.000000
0.000000 -0.000000 -1.000000
0.000000 -0.000000 -1.000000
0.000000 -0.000000 -1.000000
0.000000 -0.000000 -1.000000
0.000000 -0.000000 -1.000000
0.000000 -0.000000 -1.000000
0.000000 -0.000000 -1.000000
0.000000 -0.000000 -1.000000
0.000000 -0.000000 -1.000000
0.000000 0.000000 -1.000000
0.000000 0.000000 -1.000000
0.000000 -0.000000 -1.000000
0.000000 0.000000 -1.000000
</float_array>
          <technique_common>
            <accessor source="#Doormate-Normal0-array" count="588" stride="3">
              <param name="X" type="float"/>
              <param name="Y" type="float"/>
              <param name="Z" type="float"/>
            </accessor>
          </technique_common>
        </source>
        <source id="Doormate-UV0">
          <float_array id="Doormate-UV0-array" count="482">
0.934337 0.186298
0.974664 0.293827
0.935039 0.186298
0.935039 0.189285
0.290501 0.188296
0.934337 0.189285
0.934337 0.188678
0.935039 0.188678
0.293070 0.189285
0.355025 0.185739
0.291904 0.186810
0.291108 0.188293
0.973964 0.292710
0.011263 0.292710
0.042122 0.262166
0.943111 0.262166
0.889570 0.990157
0.007495 0.990157
0.007495 0.424007
0.889570 0.424007
0.291108 0.189285
0.975371 0.293827
0.290501 0.189285
0.289335 0.189285
0.935039 0.186905
0.289335 0.188583
0.973836 0.378414
0.975371 0.294435
0.292368 0.189285
0.333271 0.378414
0.292369 0.188678
0.293070 0.188678
0.933635 0.189285
0.933635 0.188678
0.291667 0.189285
0.291667 0.188678
0.364129 0.347870
0.293070 0.188071
0.974669 0.296159
0.292369 0.188071
0.933635 0.188071
0.975371 0.296159
0.292512 0.186811
0.942977 0.347870
0.355025 0.185038
0.934337 0.186905
0.292512 0.187512
0.291904 0.187512
0.011263 0.217853
0.973964 0.217853
0.890300 0.990246
0.890160 0.990748
0.943111 0.248397
0.889659 0.990889
0.007407 0.990889
0.042122 0.248397
0.006904 0.990748
0.006763 0.990246
0.333271 0.305299
0.973836 0.305299
0.942977 0.335842
0.006763 0.423918
0.006904 0.423415
0.364129 0.335842
0.575213 0.412691
0.572858 0.412691
0.572858 0.411850
0.572858 0.413721
0.575213 0.413721
0.575213 0.414563
0.007407 0.423274
0.889659 0.423274
0.575571 0.411008
0.890160 0.423415
0.890300 0.423918
0.006652 0.416434
0.007345 0.991694
0.006571 0.991081
0.577926 0.411008
0.009007 0.416434
0.293772 0.186298
0.889721 0.991694
0.293772 0.186905
0.293070 0.186905
0.890493 0.991081
0.293070 0.186298
0.005958 0.423856
0.006571 0.423082
0.041263 0.261307
0.041744 0.260826
0.042477 0.261559
0.942755 0.261559
0.943488 0.260826
0.943970 0.261307
0.005958 0.990308
0.935039 0.184321
0.041263 0.249256
0.041744 0.249738
0.364485 0.347263
0.942622 0.347263
0.943970 0.249256
0.943488 0.249738
0.889721 0.422469
0.935039 0.185739
0.356191 0.185739
0.356191 0.184322
0.356546 0.183714
0.356546 0.184880
0.934683 0.183714
0.577926 0.411850
0.575571 0.411850
0.572858 0.414563
0.577926 0.412691
0.009007 0.417275
0.006652 0.417275
0.575571 0.412691
0.009007 0.418117
0.934683 0.184880
0.575213 0.411850
0.006652 0.418117
0.006652 0.413721
0.572500 0.413721
0.572500 0.416076
0.006652 0.416076
0.006652 0.411008
0.572500 0.411008
0.572500 0.413363
0.006652 0.413363
0.975371 0.296767
0.974669 0.296767
0.011969 0.296159
0.011964 0.296767
0.011262 0.296767
0.011262 0.296159
0.974670 0.297374
0.011960 0.297374
0.974668 0.294435
0.011963 0.293827
0.011963 0.294435
0.011262 0.294435
0.011262 0.293827
0.976356 0.377714
0.976963 0.377714
0.974673 0.295042
0.011963 0.295042
0.890493 0.423082
0.007345 0.422469
0.891105 0.990308
0.891105 0.423856
0.576588 0.394639
0.575993 0.394044
0.576465 0.393572
0.577183 0.394291
0.057249 0.196738
0.057950 0.196036
0.698515 0.196036
0.699217 0.196738
0.699919 0.197436
0.056547 0.197436
0.698984 0.209214
0.698283 0.209915
0.056314 0.209915
0.055613 0.209214
0.697581 0.210617
0.057016 0.210617
0.934337 0.187512
0.293772 0.187512
0.007378 0.405341
0.888909 0.405341
0.888909 0.407696
0.007378 0.407696
0.956050 0.202440
0.055061 0.202440
0.055416 0.201581
0.955694 0.201581
0.887402 0.397019
0.887997 0.397368
0.007378 0.401676
0.888909 0.401676
0.888909 0.404031
0.007378 0.404031
0.956050 0.203857
0.055061 0.203857
0.055416 0.202999
0.955694 0.202998
0.887278 0.398086
0.886806 0.397614
0.942755 0.249005
0.042477 0.249005
0.942622 0.336449
0.364485 0.336449
0.886212 0.398209
0.886560 0.398804
0.320363 0.398209
0.320015 0.398804
0.319296 0.398086
0.319768 0.397614
0.319173 0.397019
0.318578 0.397368
0.008360 0.394639
0.007765 0.394291
0.008483 0.393572
0.008955 0.394044
0.010562 0.292009
0.974671 0.292008
0.010562 0.218555
0.974671 0.218555
0.572858 0.411008
0.575213 0.411008
0.007029 0.404746
0.575213 0.415404
0.889257 0.404746
0.572858 0.415404
0.007029 0.401080
0.889257 0.401080
0.009550 0.393449
0.009201 0.392854
0.575398 0.393449
0.575746 0.392854
0.899005 0.170629
0.899005 0.006799
0.007183 0.006800
0.007183 0.170629
0.355632 0.185037
0.355632 0.185739
0.289942 0.188583
0.289942 0.189284
0.943836 0.347012
0.943355 0.346530
0.943355 0.337182
0.943836 0.336700
0.363271 0.347012
0.363752 0.346530
0.363271 0.336701
0.363752 0.337182
0.976963 0.377013
0.976356 0.377012
0.974537 0.377713
0.974537 0.305999
0.332569 0.377713
0.332569 0.305999
</float_array>
          <technique_common>
            <accessor source="#Doormate-UV0-array" count="241" stride="2">
              <param name="S" type="float"/>
              <param name="T" type="float"/>
            </accessor>
          </technique_common>
        </source>
        <vertices id="Doormate-VERTEX">
          <input semantic="POSITION" source="#Doormate-POSITION"/>
        </vertices>
        <triangles count="196" material="Doormate"><input semantic="VERTEX" offset="0" source="#Doormate-VERTEX"/><input semantic="NORMAL" offset="1" source="#Doormate-Normal0"/><input semantic="TEXCOORD" offset="2" set="0" source="#Doormate-UV0"/><p> 59 0 19 57 1 17 58 2 18 57 3 17 59 4 19 56 5 16 68 6 12 70 7 14 71 8 15 70 9 14 68 10 12 69 11 13 75 12 43 73 13 29 74 14 36 72 15 26 73 16 29 75 17 43 79 18 55 77 19 49 78 20 52 76 21 48 77 22 49 79 23 55 80 24 58 82 25 60 83 26 63 82 27 60 80 28 58 81 29 59 87 30 180 85 31 178 86 32 179 85 33 178 87 34 180 84 35 177 91 36 123 89 37 121 90 38 122 89 39 121 91 40 123 88 41 120 95 42 170 93 43 168 94 44 169 93 45 168 95 46 170 92 47 167 99 48 127 97 49 125 98 50 126 97 51 125 99 52 127 96 53 124 41 54 53 43 55 50 40 56 51 43 57 50 41 58 53 56 59 16 46 60 57 45 61 54 44 62 56 45 63 54 46 64 57 57 65 17 50 66 70 49 67 61 48 68 62 49 69 61 50 70 70 58 71 18 54 72 74 53 73 71 52 74 73 53 75 71 54 76 74 59 77 19 6 78 7 9 79 5 5 80 6 9 81 5 6 82 7 60 83 3 1 84 11 2 85 22 61 86 4 2 87 22 1 88 11 0 89 20 10 90 30 11 91 31 62 92 8 10 93 30 62 94 8 14 95 28 5 96 6 63 97 32 8 98 33 63 99 32 5 100 6 9 101 5 16 102 224 19 103 44 15 104 223 19 105 44 16 106 224 64 107 9 13 108 35 14 109 28 65 110 34 14 111 28 13 112 35 10 113 30 3 114 226 2 115 25 0 116 225 2 117 25 3 118 226 66 119 23 18 120 42 19 121 47 67 122 10 19 123 47 18 124 42 15 125 46 4 126 21 1 127 136 68 128 1 1 129 136 4 130 21 0 131 27 7 132 140 6 133 138 5 134 139 6 135 138 7 136 140 69 137 137 29 138 88 26 139 90 70 140 14 26 141 90 29 142 88 25 143 89 21 144 91 22 145 93 71 146 15 22 147 93 21 148 91 20 149 92 7 150 236 5 151 235 72 152 141 72 153 141 5 154 235 8 155 142 12 156 39 11 157 31 10 158 30 11 159 31 12 160 39 73 161 37 31 162 98 34 163 231 30 164 232 34 165 231 31 166 98 74 167 36 29 168 227 28 169 99 25 170 228 28 171 99 29 172 227 75 173 43 12 174 41 13 175 129 76 176 38 13 177 129 12 178 41 10 179 128 17 180 133 16 181 131 15 182 132 16 183 131 17 184 133 77 185 130 36 186 187 39 187 100 35 188 101 39 189 100 36 190 187 78 191 52 34 192 96 33 193 188 30 194 97 33 195 188 34 196 96 79 197 55 17 198 2 18 199 45 80 200 0 18 201 45 17 202 2 15 203 24 4 204 85 3 205 82 0 206 83 3 207 82 4 208 85 81 209 80 22 210 230 23 211 189 82 212 60 23 213 189 22 214 230 20 215 229 38 216 190 39 217 233 83 218 63 39 219 233 38 220 190 35 221 234 20 222 151 21 223 152 84 224 149 84 225 149 24 226 150 20 227 151 26 228 176 25 229 185 85 230 175 85 231 175 25 232 185 27 233 186 45 234 54 47 235 77 44 236 56 47 237 77 45 238 54 86 239 76 41 240 53 42 241 84 87 242 81 42 243 84 41 244 53 40 245 51 25 246 185 28 247 192 88 248 191 25 249 185 88 250 191 27 251 186 31 252 194 30 253 195 89 254 193 89 255 193 30 256 195 32 257 196 48 258 62 49 259 61 90 260 86 90 261 86 51 262 87 48 263 62 44 264 56 91 265 94 46 266 57 91 267 94 44 268 56 47 269 77 30 270 195 92 271 197 32 272 196 92 273 197 30 274 195 33 275 198 37 276 202 93 277 199 35 278 201 93 279 199 36 280 200 35 281 201 53 282 71 55 283 145 52 284 73 55 285 145 53 286 71 94 287 102 50 288 70 51 289 87 95 290 146 51 291 87 50 292 70 48 293 62 96 294 215 37 295 202 35 296 201 96 297 215 35 298 201 38 299 216 20 300 151 97 301 217 23 302 218 97 303 217 20 304 151 24 305 150 40 306 51 43 307 50 98 308 147 98 309 147 42 310 84 40 311 51 52 312 73 99 313 148 54 314 74 99 315 148 52 316 73 55 317 145 57 318 17 56 319 16 41 320 53 57 321 17 41 322 53 45 323 54 58 324 18 57 325 17 46 326 57 58 327 18 46 328 57 49 329 61 59 330 19 58 331 18 50 332 70 59 333 19 50 334 70 53 335 71 56 336 16 59 337 19 54 338 74 56 339 16 54 340 74 43 341 50 1 342 136 60 343 144 6 344 138 60 345 144 1 346 136 61 347 143 11 348 31 8 349 33 63 350 32 11 351 31 63 352 32 62 353 8 16 354 131 13 355 129 65 356 134 16 357 131 65 358 134 64 359 135 18 360 45 66 361 166 3 362 82 66 363 166 18 364 45 67 365 165 68 366 1 6 367 138 69 368 137 6 369 138 68 370 1 1 371 136 69 372 13 29 373 88 70 374 14 29 375 88 69 376 13 7 377 203 71 378 181 70 379 182 26 380 183 71 381 181 26 382 183 21 383 184 22 384 93 4 385 204 68 386 12 68 387 12 71 388 15 22 389 93 73 390 37 72 391 40 8 392 33 73 393 37 8 394 33 11 395 31 34 396 231 73 397 29 12 398 239 73 399 29 34 400 231 74 401 36 75 402 95 74 403 105 31 404 106 75 405 95 31 406 106 28 407 108 29 408 227 7 409 237 72 410 26 72 411 26 75 412 43 29 413 227 77 414 130 76 415 38 13 416 129 77 417 130 13 418 129 16 419 131 39 420 100 77 421 49 17 422 206 77 423 49 39 424 100 78 425 52 79 426 171 78 427 172 36 428 173 79 429 171 36 430 173 33 431 174 76 432 48 34 433 96 12 434 205 34 435 96 76 436 48 79 437 55 80 438 0 3 439 82 81 440 80 3 441 82 80 442 0 18 443 45 22 444 230 81 445 59 4 446 238 81 447 59 22 448 230 82 449 60 83 450 103 82 451 104 23 452 107 83 453 103 23 454 107 38 455 117 39 456 233 80 457 58 83 458 63 80 459 58 39 460 233 17 461 240 85 462 178 84 463 177 21 464 213 85 465 178 21 466 213 26 467 214 27 468 69 47 469 111 86 470 67 86 471 67 85 472 68 27 473 69 45 474 54 41 475 53 87 476 81 45 477 54 87 478 81 86 479 76 42 480 66 84 481 64 87 482 65 84 483 64 42 484 66 24 485 118 28 486 192 31 487 194 89 488 193 28 489 192 89 490 193 88 491 191 32 492 109 51 493 110 90 494 72 90 495 72 89 496 78 32 497 109 49 498 61 91 499 94 90 500 86 91 501 94 49 502 61 46 503 57 47 504 111 88 505 210 91 506 212 88 507 210 47 508 111 27 509 69 93 510 168 92 511 167 33 512 209 93 513 168 33 514 209 36 515 211 37 516 113 55 517 114 94 518 75 94 519 75 93 520 79 37 521 113 53 522 71 50 523 70 95 524 146 53 525 71 95 526 146 94 527 102 51 528 110 92 529 112 95 530 115 92 531 112 51 532 110 32 533 109 38 534 216 97 535 217 96 536 215 38 537 216 23 538 218 97 539 217 24 540 118 42 541 66 98 542 207 98 543 207 97 544 208 24 545 118 43 546 50 54 547 74 99 548 148 99 549 148 98 550 147 43 551 50 55 552 114 96 553 116 99 554 119 96 555 116 55 556 114 37 557 113 19 558 156 2 559 153 66 560 154 19 561 156 66 562 154 67 563 155 64 564 157 61 565 158 2 566 153 64 567 157 2 568 153 19 569 156 60 570 221 61 571 220 65 572 222 61 573 220 64 574 219 65 575 222 9 576 161 65 577 159 14 578 160 65 579 159 9 580 161 60 581 162 9 582 161 14 583 160 63 584 164 63 585 164 14 586 160 62 587 163</p></triangles>
      </mesh>
    </geometry>
  </library_geometries>
  <library_lights>
    <light id="SceneAmbient" name="SceneAmbient">
      <technique_common>
        <ambient>
          <color>0.203922 0.203922 0.203922</color>
        </ambient>
      </technique_common>
    </light>
  </library_lights>
  <library_visual_scenes>
    <visual_scene id="Doormate" name="Doormate">
      <node name="Doormate" id="Doormate" sid="Doormate"><matrix sid="matrix">1.000000 0.000000 0.000000 0.000000 0.000000 0.000000 1.000000 0.000000 0.000000 -1.000000 0.000000 0.000000 0.000000 0.000000 0.000000 1.000000</matrix><instance_geometry url="#Doormate-lib"><bind_material><technique_common><instance_material symbol="Doormate" target="#Doormate"/></technique_common></bind_material></instance_geometry><extra><technique profile="FCOLLADA"><visibility>1.000000</visibility></technique></extra></node>
      <extra><technique profile="MAX3D"><frame_rate>30.000000</frame_rate></technique><technique profile="FCOLLADA"><start_time>0.000000</start_time><end_time>3.333333</end_time></technique></extra>
      <node>
        <instance_light url="#SceneAmbient"></instance_light>
      </node>
    </visual_scene>
  </library_visual_scenes>
  <scene>
    <instance_visual_scene url="#Doormate"></instance_visual_scene>
  </scene>
</COLLADA>
